<mxfile host="app.diagrams.net" modified="2023-06-28T01:47:54.352Z" agent="Mozilla/5.0 (Windows NT 10.0; Win64; x64) AppleWebKit/537.36 (KHTML, like Gecko) Chrome/114.0.0.0 Safari/537.36 Edg/114.0.1823.58" etag="413D6cSrDfghUsFjn8YW" version="21.5.0" type="device">
  <diagram name="ページ1" id="9ATg9WZ0ROGsVgX8xcEM">
    <mxGraphModel dx="1035" dy="522" grid="1" gridSize="10" guides="1" tooltips="1" connect="1" arrows="1" fold="1" page="1" pageScale="1" pageWidth="827" pageHeight="1169" math="0" shadow="0">
      <root>
        <mxCell id="0" />
        <mxCell id="1" parent="0" />
        <mxCell id="-FR-FvOP9RfR179ofzON-1" value="" style="rounded=0;whiteSpace=wrap;html=1;" vertex="1" parent="1">
          <mxGeometry x="80" y="310" width="190" height="210" as="geometry" />
        </mxCell>
        <mxCell id="-FR-FvOP9RfR179ofzON-2" value="" style="endArrow=none;html=1;rounded=0;exitX=0;exitY=0.25;exitDx=0;exitDy=0;entryX=1;entryY=0.25;entryDx=0;entryDy=0;" edge="1" parent="1">
          <mxGeometry width="50" height="50" relative="1" as="geometry">
            <mxPoint x="80" y="350" as="sourcePoint" />
            <mxPoint x="270" y="350" as="targetPoint" />
          </mxGeometry>
        </mxCell>
        <mxCell id="-FR-FvOP9RfR179ofzON-3" value="" style="endArrow=none;html=1;rounded=0;exitX=0;exitY=0.25;exitDx=0;exitDy=0;entryX=1;entryY=0.25;entryDx=0;entryDy=0;" edge="1" parent="1">
          <mxGeometry width="50" height="50" relative="1" as="geometry">
            <mxPoint x="80" y="400" as="sourcePoint" />
            <mxPoint x="270" y="400" as="targetPoint" />
          </mxGeometry>
        </mxCell>
        <mxCell id="-FR-FvOP9RfR179ofzON-5" value="" style="endArrow=none;html=1;rounded=0;" edge="1" parent="1">
          <mxGeometry width="50" height="50" relative="1" as="geometry">
            <mxPoint x="40" y="330" as="sourcePoint" />
            <mxPoint x="170" y="270" as="targetPoint" />
            <Array as="points">
              <mxPoint x="40" y="270" />
            </Array>
          </mxGeometry>
        </mxCell>
        <mxCell id="-FR-FvOP9RfR179ofzON-6" value="" style="endArrow=none;html=1;rounded=0;" edge="1" parent="1">
          <mxGeometry width="50" height="50" relative="1" as="geometry">
            <mxPoint x="40" y="330" as="sourcePoint" />
            <mxPoint x="80" y="330" as="targetPoint" />
          </mxGeometry>
        </mxCell>
        <mxCell id="-FR-FvOP9RfR179ofzON-7" value="" style="endArrow=none;html=1;rounded=0;exitX=0.474;exitY=0;exitDx=0;exitDy=0;exitPerimeter=0;" edge="1" parent="1" source="-FR-FvOP9RfR179ofzON-1">
          <mxGeometry width="50" height="50" relative="1" as="geometry">
            <mxPoint x="90" y="450" as="sourcePoint" />
            <mxPoint x="170" y="270" as="targetPoint" />
          </mxGeometry>
        </mxCell>
        <mxCell id="-FR-FvOP9RfR179ofzON-8" value="" style="rounded=0;whiteSpace=wrap;html=1;" vertex="1" parent="1">
          <mxGeometry x="490" y="280" width="240" height="180" as="geometry" />
        </mxCell>
        <mxCell id="-FR-FvOP9RfR179ofzON-9" value="" style="rounded=0;whiteSpace=wrap;html=1;" vertex="1" parent="1">
          <mxGeometry x="80" y="610" width="190" height="120" as="geometry" />
        </mxCell>
        <mxCell id="-FR-FvOP9RfR179ofzON-10" value="" style="rounded=0;whiteSpace=wrap;html=1;" vertex="1" parent="1">
          <mxGeometry x="320" y="510" width="230" height="220" as="geometry" />
        </mxCell>
        <mxCell id="-FR-FvOP9RfR179ofzON-11" value="" style="rounded=0;whiteSpace=wrap;html=1;" vertex="1" parent="1">
          <mxGeometry x="620" y="550" width="150" height="140" as="geometry" />
        </mxCell>
        <mxCell id="-FR-FvOP9RfR179ofzON-12" value="" style="endArrow=none;html=1;rounded=0;" edge="1" parent="1">
          <mxGeometry width="50" height="50" relative="1" as="geometry">
            <mxPoint x="490" y="310" as="sourcePoint" />
            <mxPoint x="730" y="310" as="targetPoint" />
          </mxGeometry>
        </mxCell>
        <mxCell id="-FR-FvOP9RfR179ofzON-13" value="" style="endArrow=none;html=1;rounded=0;" edge="1" parent="1">
          <mxGeometry width="50" height="50" relative="1" as="geometry">
            <mxPoint x="490" y="320" as="sourcePoint" />
            <mxPoint x="730" y="320" as="targetPoint" />
          </mxGeometry>
        </mxCell>
        <mxCell id="-FR-FvOP9RfR179ofzON-14" value="" style="endArrow=none;html=1;rounded=0;entryX=1;entryY=0.388;entryDx=0;entryDy=0;entryPerimeter=0;" edge="1" parent="1">
          <mxGeometry width="50" height="50" relative="1" as="geometry">
            <mxPoint x="80" y="640" as="sourcePoint" />
            <mxPoint x="270" y="640" as="targetPoint" />
          </mxGeometry>
        </mxCell>
        <mxCell id="-FR-FvOP9RfR179ofzON-15" value="" style="endArrow=none;html=1;rounded=0;entryX=1;entryY=0.388;entryDx=0;entryDy=0;entryPerimeter=0;" edge="1" parent="1">
          <mxGeometry width="50" height="50" relative="1" as="geometry">
            <mxPoint x="80" y="650" as="sourcePoint" />
            <mxPoint x="270" y="650" as="targetPoint" />
          </mxGeometry>
        </mxCell>
        <mxCell id="-FR-FvOP9RfR179ofzON-16" value="" style="endArrow=none;html=1;rounded=0;" edge="1" parent="1">
          <mxGeometry width="50" height="50" relative="1" as="geometry">
            <mxPoint x="620" y="584" as="sourcePoint" />
            <mxPoint x="770" y="584" as="targetPoint" />
          </mxGeometry>
        </mxCell>
        <mxCell id="-FR-FvOP9RfR179ofzON-17" value="" style="endArrow=none;html=1;rounded=0;" edge="1" parent="1">
          <mxGeometry width="50" height="50" relative="1" as="geometry">
            <mxPoint x="620" y="630" as="sourcePoint" />
            <mxPoint x="770" y="630" as="targetPoint" />
          </mxGeometry>
        </mxCell>
        <mxCell id="-FR-FvOP9RfR179ofzON-18" value="" style="endArrow=none;html=1;rounded=0;" edge="1" parent="1">
          <mxGeometry width="50" height="50" relative="1" as="geometry">
            <mxPoint x="320" y="540" as="sourcePoint" />
            <mxPoint x="550" y="540" as="targetPoint" />
          </mxGeometry>
        </mxCell>
        <mxCell id="-FR-FvOP9RfR179ofzON-19" value="" style="endArrow=none;html=1;rounded=0;" edge="1" parent="1">
          <mxGeometry width="50" height="50" relative="1" as="geometry">
            <mxPoint x="320" y="570" as="sourcePoint" />
            <mxPoint x="550" y="570" as="targetPoint" />
          </mxGeometry>
        </mxCell>
        <mxCell id="-FR-FvOP9RfR179ofzON-20" value="手札" style="text;html=1;strokeColor=none;fillColor=none;align=center;verticalAlign=middle;whiteSpace=wrap;rounded=0;" vertex="1" parent="1">
          <mxGeometry x="400" y="510" width="60" height="30" as="geometry" />
        </mxCell>
        <mxCell id="-FR-FvOP9RfR179ofzON-21" value="カードの枚数" style="text;html=1;strokeColor=none;fillColor=none;align=center;verticalAlign=middle;whiteSpace=wrap;rounded=0;" vertex="1" parent="1">
          <mxGeometry x="320" y="540" width="100" height="30" as="geometry" />
        </mxCell>
        <mxCell id="-FR-FvOP9RfR179ofzON-22" value="テーブル" style="text;html=1;strokeColor=none;fillColor=none;align=center;verticalAlign=middle;whiteSpace=wrap;rounded=0;" vertex="1" parent="1">
          <mxGeometry x="125" y="610" width="100" height="30" as="geometry" />
        </mxCell>
        <mxCell id="-FR-FvOP9RfR179ofzON-23" value="カード" style="text;html=1;strokeColor=none;fillColor=none;align=center;verticalAlign=middle;whiteSpace=wrap;rounded=0;" vertex="1" parent="1">
          <mxGeometry x="665" y="555" width="60" height="30" as="geometry" />
        </mxCell>
        <mxCell id="-FR-FvOP9RfR179ofzON-24" value="プレイヤー" style="text;html=1;strokeColor=none;fillColor=none;align=center;verticalAlign=middle;whiteSpace=wrap;rounded=0;" vertex="1" parent="1">
          <mxGeometry x="127.5" y="320" width="95" height="30" as="geometry" />
        </mxCell>
        <mxCell id="-FR-FvOP9RfR179ofzON-25" value="進行役" style="text;html=1;strokeColor=none;fillColor=none;align=center;verticalAlign=middle;whiteSpace=wrap;rounded=0;" vertex="1" parent="1">
          <mxGeometry x="565" y="280" width="90" height="30" as="geometry" />
        </mxCell>
        <mxCell id="-FR-FvOP9RfR179ofzON-26" value="&lt;div style=&quot;text-align: left;&quot;&gt;&lt;span style=&quot;background-color: initial;&quot;&gt;名前&lt;/span&gt;&lt;/div&gt;&lt;div style=&quot;text-align: left;&quot;&gt;&lt;span style=&quot;background-color: initial;&quot;&gt;パスの回数&lt;/span&gt;&lt;/div&gt;" style="text;html=1;strokeColor=none;fillColor=none;align=center;verticalAlign=middle;whiteSpace=wrap;rounded=0;" vertex="1" parent="1">
          <mxGeometry x="80" y="355" width="90" height="45" as="geometry" />
        </mxCell>
        <mxCell id="-FR-FvOP9RfR179ofzON-27" value="上がりを宣言する（）&lt;br&gt;パスを出す（）" style="text;html=1;strokeColor=none;fillColor=none;align=left;verticalAlign=middle;whiteSpace=wrap;rounded=0;" vertex="1" parent="1">
          <mxGeometry x="510" y="320" width="175" height="70" as="geometry" />
        </mxCell>
        <mxCell id="-FR-FvOP9RfR179ofzON-28" value="&lt;div style=&quot;text-align: left;&quot;&gt;&lt;span style=&quot;background-color: initial;&quot;&gt;数&lt;/span&gt;&lt;/div&gt;スート" style="text;html=1;strokeColor=none;fillColor=none;align=center;verticalAlign=middle;whiteSpace=wrap;rounded=0;" vertex="1" parent="1">
          <mxGeometry x="620" y="585" width="70" height="45" as="geometry" />
        </mxCell>
        <mxCell id="-FR-FvOP9RfR179ofzON-29" value="数字を見る（）&lt;br&gt;スートを見る（）" style="text;html=1;strokeColor=none;fillColor=none;align=left;verticalAlign=middle;whiteSpace=wrap;rounded=0;" vertex="1" parent="1">
          <mxGeometry x="630" y="630" width="100" height="60" as="geometry" />
        </mxCell>
        <mxCell id="-FR-FvOP9RfR179ofzON-30" value="&lt;div style=&quot;&quot;&gt;&lt;span style=&quot;background-color: initial;&quot;&gt;カードを置く（）&lt;/span&gt;&lt;/div&gt;" style="text;html=1;strokeColor=none;fillColor=none;align=left;verticalAlign=middle;whiteSpace=wrap;rounded=0;" vertex="1" parent="1">
          <mxGeometry x="90" y="655" width="170" height="30" as="geometry" />
        </mxCell>
        <mxCell id="-FR-FvOP9RfR179ofzON-32" value="カードを加える（）&lt;br&gt;カードを引く（）&lt;br&gt;枚数を数える（）&lt;br&gt;&lt;div style=&quot;&quot;&gt;&lt;span style=&quot;background-color: initial;&quot;&gt;シャッフルする（）&lt;/span&gt;&lt;/div&gt;" style="text;html=1;strokeColor=none;fillColor=none;align=left;verticalAlign=middle;whiteSpace=wrap;rounded=0;" vertex="1" parent="1">
          <mxGeometry x="330" y="577.5" width="200" height="85" as="geometry" />
        </mxCell>
        <mxCell id="-FR-FvOP9RfR179ofzON-33" value="カードを配る（）&lt;br&gt;順番を指名する（）&lt;br&gt;手札を出す（）&lt;br&gt;&lt;div style=&quot;&quot;&gt;&lt;span style=&quot;background-color: initial;&quot;&gt;パスの回数を数える（）&lt;/span&gt;&lt;/div&gt;" style="text;html=1;strokeColor=none;fillColor=none;align=left;verticalAlign=middle;whiteSpace=wrap;rounded=0;" vertex="1" parent="1">
          <mxGeometry x="90" y="410" width="170" height="100" as="geometry" />
        </mxCell>
        <mxCell id="-FR-FvOP9RfR179ofzON-34" value="" style="endArrow=none;html=1;rounded=0;exitX=0.997;exitY=0.084;exitDx=0;exitDy=0;exitPerimeter=0;" edge="1" parent="1" source="-FR-FvOP9RfR179ofzON-1">
          <mxGeometry width="50" height="50" relative="1" as="geometry">
            <mxPoint x="310" y="340" as="sourcePoint" />
            <mxPoint x="490" y="328" as="targetPoint" />
          </mxGeometry>
        </mxCell>
        <mxCell id="-FR-FvOP9RfR179ofzON-35" value="" style="endArrow=none;html=1;rounded=0;entryX=0.5;entryY=1;entryDx=0;entryDy=0;exitX=0.5;exitY=0;exitDx=0;exitDy=0;" edge="1" parent="1" source="-FR-FvOP9RfR179ofzON-22" target="-FR-FvOP9RfR179ofzON-1">
          <mxGeometry width="50" height="50" relative="1" as="geometry">
            <mxPoint x="130" y="585" as="sourcePoint" />
            <mxPoint x="180" y="535" as="targetPoint" />
          </mxGeometry>
        </mxCell>
        <mxCell id="-FR-FvOP9RfR179ofzON-36" value="" style="endArrow=none;html=1;rounded=0;exitX=1.006;exitY=0.549;exitDx=0;exitDy=0;exitPerimeter=0;entryX=0.174;entryY=0;entryDx=0;entryDy=0;entryPerimeter=0;" edge="1" parent="1" source="-FR-FvOP9RfR179ofzON-1" target="-FR-FvOP9RfR179ofzON-10">
          <mxGeometry width="50" height="50" relative="1" as="geometry">
            <mxPoint x="310" y="440" as="sourcePoint" />
            <mxPoint x="420" y="420" as="targetPoint" />
            <Array as="points">
              <mxPoint x="360" y="425" />
            </Array>
          </mxGeometry>
        </mxCell>
        <mxCell id="-FR-FvOP9RfR179ofzON-37" value="" style="endArrow=none;html=1;rounded=0;entryX=-0.007;entryY=0.892;entryDx=0;entryDy=0;entryPerimeter=0;exitX=1;exitY=0;exitDx=0;exitDy=0;" edge="1" parent="1" source="-FR-FvOP9RfR179ofzON-20" target="-FR-FvOP9RfR179ofzON-8">
          <mxGeometry width="50" height="50" relative="1" as="geometry">
            <mxPoint x="460" y="500" as="sourcePoint" />
            <mxPoint x="450" y="390" as="targetPoint" />
            <Array as="points">
              <mxPoint x="460" y="440" />
            </Array>
          </mxGeometry>
        </mxCell>
        <mxCell id="-FR-FvOP9RfR179ofzON-38" value="" style="endArrow=none;html=1;rounded=0;entryX=-0.01;entryY=0.803;entryDx=0;entryDy=0;entryPerimeter=0;" edge="1" parent="1" target="-FR-FvOP9RfR179ofzON-11">
          <mxGeometry width="50" height="50" relative="1" as="geometry">
            <mxPoint x="550" y="662.5" as="sourcePoint" />
            <mxPoint x="595" y="662.5" as="targetPoint" />
          </mxGeometry>
        </mxCell>
        <mxCell id="-FR-FvOP9RfR179ofzON-39" value="ゲームを進める" style="text;html=1;strokeColor=none;fillColor=none;align=center;verticalAlign=middle;whiteSpace=wrap;rounded=0;" vertex="1" parent="1">
          <mxGeometry x="310" y="290" width="130" height="30" as="geometry" />
        </mxCell>
        <mxCell id="-FR-FvOP9RfR179ofzON-40" value="持っている" style="text;html=1;strokeColor=none;fillColor=none;align=center;verticalAlign=middle;whiteSpace=wrap;rounded=0;" vertex="1" parent="1">
          <mxGeometry x="280" y="460" width="70" height="30" as="geometry" />
        </mxCell>
        <mxCell id="-FR-FvOP9RfR179ofzON-41" value="持っている" style="text;html=1;strokeColor=none;fillColor=none;align=center;verticalAlign=middle;whiteSpace=wrap;rounded=0;" vertex="1" parent="1">
          <mxGeometry x="470" y="470" width="70" height="30" as="geometry" />
        </mxCell>
        <mxCell id="-FR-FvOP9RfR179ofzON-42" value="カードを置く" style="text;html=1;strokeColor=none;fillColor=none;align=center;verticalAlign=middle;whiteSpace=wrap;rounded=0;" vertex="1" parent="1">
          <mxGeometry x="80" y="555" width="80" height="30" as="geometry" />
        </mxCell>
        <mxCell id="-FR-FvOP9RfR179ofzON-43" value="構成する" style="text;html=1;strokeColor=none;fillColor=none;align=center;verticalAlign=middle;whiteSpace=wrap;rounded=0;" vertex="1" parent="1">
          <mxGeometry x="560" y="630" width="60" height="30" as="geometry" />
        </mxCell>
        <mxCell id="-FR-FvOP9RfR179ofzON-44" value="対戦相手" style="text;html=1;strokeColor=none;fillColor=none;align=center;verticalAlign=middle;whiteSpace=wrap;rounded=0;" vertex="1" parent="1">
          <mxGeometry x="50" y="240" width="90" height="30" as="geometry" />
        </mxCell>
      </root>
    </mxGraphModel>
  </diagram>
</mxfile>
